<svg width="121" height="27" viewBox="0 0 121 27" fill="none" xmlns="http://www.w3.org/2000/svg">
<path d="M5 4.82613V2.21743V1.56526H118.5L121 0.913086L120.5 1.56526L120 4.17396L121 6.13048L120.5 8.73917L120 9.39135L120.5 10.6957V12.6522H117V13.9566L119 15.2609V15.9131L118 16.5653V17.8696H119V19.174L118 20.4783H112H110.5V21.7826H113L113.5 22.4348L115.5 23.087H118V26.3479H109.5H34V27H31.5L30.5 26.3479H14L13 27L12.5 26.3479H9.5H6.5L6 25.0435H4.5H1L0 24.3913H7V22.4348H4.5H2.5L1 21.1305H5H7L7.5 19.8261L5 19.174L1 17.8696V13.3044V10.0435L0 9.39135V7.43482H2V8.73917H4.5L6 6.13048H7V4.82613H5Z" fill="#970810"/>
<path d="M43.9668 20V7.69531H46.4277V20H43.9668ZM47.3945 20V17.8379H47.4824C48.1855 17.8379 48.6543 17.5449 48.8887 16.959C48.9707 16.7715 49.0117 16.5781 49.0117 16.3789C49.0117 15.793 48.7773 15.3711 48.3086 15.1133C48.0742 14.9844 47.8164 14.9199 47.5352 14.9199H47.3945V12.7754H47.5352C48.1914 12.7754 48.6426 12.4941 48.8887 11.9316C48.9707 11.7324 49.0117 11.5273 49.0117 11.3164C49.0117 10.7422 48.7715 10.3203 48.291 10.0508C48.0449 9.92188 47.7754 9.85742 47.4824 9.85742H47.3945V7.69531H47.8164C49.3398 7.69531 50.4121 8.25195 51.0332 9.36523C51.3262 9.9043 51.4727 10.4961 51.4727 11.1406C51.4727 12.1602 51.1621 12.9863 50.541 13.6191C50.4473 13.7012 50.3594 13.7773 50.2773 13.8477C50.957 14.3516 51.3496 15.1191 51.4551 16.1504C51.4668 16.291 51.4727 16.4258 51.4727 16.5547C51.4727 17.6914 51.0742 18.582 50.2773 19.2266C49.6211 19.7422 48.8008 20 47.8164 20H47.3945ZM52.5801 20L54.8477 9.76953H55.1113L56.166 14.6914L55.0059 20H52.5801ZM56.3242 18.5059L56.8516 16.0801H57.4844L55.6211 7.69531H58.0645L60.9648 20H58.5039L58.1523 18.5059H56.3242ZM61.9668 16.8184V10.8945C61.9668 10.2148 62.2188 9.55273 62.7227 8.9082C63.3906 8.05273 64.293 7.61914 65.4297 7.60742V10.0859C64.9375 10.0977 64.6211 10.3262 64.4805 10.7715C64.457 10.8184 64.4453 10.8594 64.4453 10.8945V16.8184C64.4453 17.0059 64.5449 17.1875 64.7441 17.3633C64.9316 17.5273 65.1602 17.6094 65.4297 17.6094V20.0879C64.1172 20.0879 63.127 19.5371 62.459 18.4355C62.1309 17.873 61.9668 17.334 61.9668 16.8184ZM66.3789 20.0879V17.6094C66.3789 17.6094 66.5137 17.5566 66.7832 17.4512C66.9473 17.334 67.0586 17.2109 67.1172 17.082C67.1758 16.9297 67.2051 16.7129 67.2051 16.4316V16.2207L69.6309 16.8008C69.6309 17.8203 69.2207 18.6641 68.4004 19.332C67.7793 19.8359 67.1055 20.0879 66.3789 20.0879ZM66.3789 10.0859V7.60742C67.2344 7.60742 68.0078 7.98242 68.6992 8.73242C69.3203 9.41211 69.6309 10.1445 69.6309 10.9297L67.2051 11.5625V11.2988C67.2051 11.0059 67.1758 10.7891 67.1172 10.6484C67.0703 10.5312 66.9824 10.4258 66.8535 10.332C66.7363 10.2383 66.6309 10.1738 66.5371 10.1387L66.3789 10.0859ZM70.7207 20V7.69531H73.1992V20H70.7207ZM73.9023 14.0059L75.7832 7.69531H78.2266L76.3633 14.0059L78.2969 20H75.8711L73.9023 14.0059Z" fill="white"/>
</svg>
