<svg width="372" height="32" viewBox="0 0 372 32" fill="none" xmlns="http://www.w3.org/2000/svg">
<path d="M7.89864 0H13.7878H15.5801H364.319L372 6.22869e-06L368.511 1.70001L361.036 2.20001L351.002 3.20001L330.005 3.20001L339.886 5.20001L351.002 5.20001H361.036L367.016 7.20001L353.473 7.70001L364.319 9.20001L348.532 10.7L363.354 11.7L361.534 13.2L354.708 13.7L365.521 15.2L356.561 16.2L349.15 15.7L339.268 16.7L343.591 18.2H351.62L360.266 18.2L365.521 19.2L354.708 20.2L344.826 20.2L351.002 21.7L358.413 22.2L362.736 22.7L365.824 23.2L353.473 24.2L365.824 26.7L368.927 28.7L369.508 30.4H336.665H104.685V31.2H97.0036L93.931 30.4H43.2334L40.1608 31.2L38.6245 30.4H29.4067H20.189L18.6527 28.8L10.5856 30.4H5.4014L0.217174 30.4L2.43898 28.8L6.86803 28L5.4014 27.2L2.43898 26.7H0.957777L1.69838 26.2L2.43898 25.6L6.20294 24.2L0.957777 24.2L1.87989 22.5L3.17959 21.5L2.21243 20.5L0.957777 19.5L1.87989 18.5L2.22181 16.9399L1.54735 15L0 13.9399L3.28976 10.4L0.217174 9.6V7.2L2.43898 6L0.957777 4L3.92019 1.7L2.43898 1.2L0.385243 0H4.13006H7.89864Z" fill="#970810"/>
</svg>
