<svg width="175" height="45" viewBox="0 0 175 45" fill="none" xmlns="http://www.w3.org/2000/svg">
<path d="M19.6215 1L5.20486 21.8065L19.6215 44H155.378L170.396 22.5L155.378 1H19.6215Z" fill="#970810"/>
<path d="M164.99 9.32258H163.188L172.198 22.5L163.788 34.2903H165.59L174 21.8065L164.99 9.32258Z" fill="#970810"/>
<path d="M12.4132 9.32258H10.6111L1 21.8065L9.40972 34.2903H11.8125L3.40278 21.8065L12.4132 9.32258Z" fill="#970810"/>
<path d="M19.6215 1L5.20486 21.8065L19.6215 44H155.378L170.396 22.5L155.378 1H19.6215Z" stroke="#FF9F9F"/>
<path d="M164.99 9.32258H163.188L172.198 22.5L163.788 34.2903H165.59L174 21.8065L164.99 9.32258Z" stroke="#FF9F9F"/>
<path d="M12.4132 9.32258H10.6111L1 21.8065L9.40972 34.2903H11.8125L3.40278 21.8065L12.4132 9.32258Z" stroke="#FF9F9F"/>
<path d="M53.4863 28V15.6953H59.8848V18.1562H55.9648V20.6523H58.2324V23.1309H55.9648V25.5215H59.8848V28H53.4863ZM61.2207 28V20.7051C61.2207 20.1191 61.4844 19.5449 62.0117 18.9824C62.6562 18.3145 63.459 17.9746 64.4199 17.9629V20.3008C63.9277 20.3594 63.6582 20.5879 63.6113 20.9863V28H61.2207ZM65.2285 20.3008V17.9629C66.3652 17.9629 67.2617 18.4141 67.918 19.3164C68.2695 19.8086 68.4453 20.2715 68.4453 20.7051V28H66.0547V20.9863C66.0547 20.5996 65.8379 20.377 65.4043 20.3184C65.3457 20.3066 65.2871 20.3008 65.2285 20.3008ZM69.8516 28V17.9805H72.2422V19.0879C72.6523 18.5605 73.209 18.1973 73.9121 17.998C74.1582 17.9277 74.4043 17.8926 74.6504 17.8926H75.2832L74.7383 20.248C74 20.2598 73.3613 20.582 72.8223 21.2148C72.4355 21.6719 72.2422 22.1465 72.2422 22.6387V28H69.8516ZM76.127 25.2754V20.6875C76.127 20.1133 76.3789 19.5508 76.8828 19C77.5156 18.332 78.3184 17.9922 79.291 17.9805V20.2656C78.7637 20.3125 78.4824 20.5352 78.4473 20.9336V25.0293C78.4707 25.4863 78.752 25.7207 79.291 25.7324V28.0176C78.1426 28.0176 77.252 27.5547 76.6191 26.6289C76.291 26.1484 76.127 25.6973 76.127 25.2754ZM80.0996 28.0176V25.7324C80.5918 25.6738 80.8613 25.4512 80.9082 25.0645L80.8906 20.9336C80.8086 20.5117 80.5391 20.2891 80.082 20.2656V17.9805C81.1836 17.9805 82.0449 18.4258 82.666 19.3164C82.9941 19.7969 83.1582 20.2539 83.1582 20.6875V25.2754C83.1582 25.8613 82.9062 26.4355 82.4023 26.998C81.793 27.666 81.0254 28.0059 80.0996 28.0176ZM84.5645 28V15.4141H87.0957V28H84.5645ZM92.6152 28V19.3516H92.7559L95.0938 23.1133V28H92.6152ZM92.6152 17.3125V15.6953H94.6367L100.438 25.0469V28H99.2598L92.6152 17.3125ZM97.959 19.2461V15.6953H100.438V23.0078H100.297L97.959 19.2461ZM101.844 25.2754V20.6875C101.844 20.1133 102.096 19.5508 102.6 19C103.232 18.332 104.035 17.9922 105.008 17.9805V20.2656C104.48 20.3125 104.199 20.5352 104.164 20.9336V25.0293C104.188 25.4863 104.469 25.7207 105.008 25.7324V28.0176C103.859 28.0176 102.969 27.5547 102.336 26.6289C102.008 26.1484 101.844 25.6973 101.844 25.2754ZM105.816 28.0176V25.7324C106.309 25.6738 106.578 25.4512 106.625 25.0645L106.607 20.9336C106.525 20.5117 106.256 20.2891 105.799 20.2656V17.9805C106.9 17.9805 107.762 18.4258 108.383 19.3164C108.711 19.7969 108.875 20.2539 108.875 20.6875V25.2754C108.875 25.8613 108.623 26.4355 108.119 26.998C107.51 27.666 106.742 28.0059 105.816 28.0176ZM109.666 17.9805H112.285L114.852 25.5742L114.061 28H112.725L109.666 17.9805ZM113.85 20.3887L114.588 17.9805H117.207L119.773 25.5742L118.982 28H117.646L115.871 22.2168L115.326 23.9746H115.098L113.85 20.3887ZM118.771 20.3887L119.51 17.9805H122.129L120.248 23.9746H120.02L118.771 20.3887Z" fill="#FFB6B8"/>
</svg>
