<svg width="175" height="45" viewBox="0 0 175 45" fill="none" xmlns="http://www.w3.org/2000/svg">
<path d="M19.6215 1L5.20486 21.8065L19.6215 44H155.378L170.396 22.5L155.378 1H19.6215Z" fill="#970810"/>
<path d="M164.99 9.32258H163.188L172.198 22.5L163.788 34.2903H165.59L174 21.8065L164.99 9.32258Z" fill="#970810"/>
<path d="M12.4132 9.32258H10.6111L1 21.8065L9.40972 34.2903H11.8125L3.40278 21.8065L12.4132 9.32258Z" fill="#970810"/>
<path d="M19.6215 1L5.20486 21.8065L19.6215 44H155.378L170.396 22.5L155.378 1H19.6215Z" stroke="#FF9F9F"/>
<path d="M164.99 9.32258H163.188L172.198 22.5L163.788 34.2903H165.59L174 21.8065L164.99 9.32258Z" stroke="#FF9F9F"/>
<path d="M12.4132 9.32258H10.6111L1 21.8065L9.40972 34.2903H11.8125L3.40278 21.8065L12.4132 9.32258Z" stroke="#FF9F9F"/>
<path d="M44.583 28V15.6953H50.9814V18.1562H47.0615V20.6523H49.3291V23.1309H47.0615V25.5215H50.9814V28H44.583ZM52.3877 28V19.3516H52.5283L54.8662 23.1133V28H52.3877ZM52.3877 17.3125V15.6953H54.4092L60.21 25.0469V28H59.0322L52.3877 17.3125ZM57.7314 19.2461V15.6953H60.21V23.0078H60.0693L57.7314 19.2461ZM61.2119 18.1211V15.6953H68.8232V18.1211H66.2568V28H63.7783V18.1211H61.2119ZM69.8252 28V15.6953H76.2236V18.1562H72.3037V20.6523H74.5713V23.1309H72.3037V25.5215H76.2236V28H69.8252ZM77.6299 28V15.6953H80.1084V28H77.6299ZM81.0576 22.9727V20.7754H81.2861C82.0361 20.7754 82.5166 20.4707 82.7275 19.8613C82.7744 19.709 82.7979 19.5508 82.7979 19.3867C82.7979 18.7656 82.5049 18.3496 81.9189 18.1387C81.7314 18.0684 81.5205 18.0332 81.2861 18.0332H81.0576V15.6953H81.4443C82.9795 15.7188 84.0576 16.2637 84.6787 17.3301C84.9717 17.834 85.1182 18.4023 85.1182 19.0352C85.1064 20.2422 84.708 21.168 83.9229 21.8125C84.5088 22.1875 84.8838 22.8672 85.0479 23.8516C85.0596 23.9688 85.0713 24.0801 85.083 24.1855L85.3818 28H83.0967L82.833 24.8711C82.7393 23.9336 82.4697 23.3535 82.0244 23.1309C81.8135 23.0371 81.5557 22.9844 81.251 22.9727H81.0576ZM90.5498 28V15.6953H96.9482V18.1562H93.0283V20.6523H95.2959V23.1309H93.0283V25.5215H96.9482V28H90.5498ZM97.7568 15.6953H100.288L103.083 25.2227L102.151 28H101.325L97.7568 15.6953ZM102.274 18.9648L103.241 15.6953H105.772C105.761 15.7305 105.04 18.1328 103.61 22.9023H103.435L102.274 18.9648ZM106.651 28V15.6953H113.05V18.1562H109.13V20.6523H111.397V23.1309H109.13V25.5215H113.05V28H106.651ZM114.456 28V19.3516H114.597L116.935 23.1133V28H114.456ZM114.456 17.3125V15.6953H116.478L122.278 25.0469V28H121.101L114.456 17.3125ZM119.8 19.2461V15.6953H122.278V23.0078H122.138L119.8 19.2461ZM123.28 18.1211V15.6953H130.892V18.1211H128.325V28H125.847V18.1211H123.28Z" fill="#FFB6B8"/>
</svg>
