<svg width="560" height="32" viewBox="0 0 560 32" fill="none" xmlns="http://www.w3.org/2000/svg">
<path d="M12.5496 0H21.4043H24.0992H548.45L560 6.22869e-06L554.755 1.70001L543.515 2.20001L528.429 3.20001L496.857 3.20001L511.714 5.20001L528.429 5.20001H543.515L552.507 7.20001L532.143 7.70001L548.45 9.20001L524.714 10.7L547 11.7L544.264 13.2L534 13.7L550.259 15.2L536.786 16.2L525.643 15.7L510.786 16.7L517.286 18.2H529.357L542.357 18.2L550.259 19.2L534 20.2L519.143 20.2L528.429 21.7L539.571 22.2L546.071 22.7L550.714 23.2L532.143 24.2L550.714 26.7L555.38 28.7L556.253 30.4H506.872H158.074V31.2H146.525L141.905 30.4H65.6777L61.0579 31.2L58.7479 30.4H44.8884H31.0289L28.719 28.8L16.5896 30.4H8.79482L0.999997 30.4L4.34063 28.8L11 28L8.79482 27.2L4.34063 26.7H2.11354L3.22709 26.2L4.34063 25.6L10 24.2L2.11354 24.2L3.5 22.5L5.45418 21.5L4 20.5L2.11354 19.5L3.5 18.5L4.0141 16.9399L3 15L0.673462 13.9399L5.61983 10.4L0.999997 9.6V7.2L4.34063 6L2.11354 4L6.56773 1.7L4.34063 1.2L1.2527 0H6.88328H12.5496Z" fill="#970810"/>
</svg>
