<svg width="175" height="45" viewBox="0 0 175 45" fill="none" xmlns="http://www.w3.org/2000/svg">
<path d="M19.6215 1L5.20486 21.8065L19.6215 44H155.378L170.396 22.5L155.378 1H19.6215Z" fill="#970810"/>
<path d="M164.99 9.32258H163.188L172.198 22.5L163.788 34.2903H165.59L174 21.8065L164.99 9.32258Z" fill="#970810"/>
<path d="M12.4132 9.32258H10.6111L1 21.8065L9.40972 34.2903H11.8125L3.40278 21.8065L12.4132 9.32258Z" fill="#970810"/>
<path d="M19.6215 1L5.20486 21.8065L19.6215 44H155.378L170.396 22.5L155.378 1H19.6215Z" stroke="#FF9F9F"/>
<path d="M164.99 9.32258H163.188L172.198 22.5L163.788 34.2903H165.59L174 21.8065L164.99 9.32258Z" stroke="#FF9F9F"/>
<path d="M12.4132 9.32258H10.6111L1 21.8065L9.40972 34.2903H11.8125L3.40278 21.8065L12.4132 9.32258Z" stroke="#FF9F9F"/>
<path d="M58.9004 28V15.6953H61.3789V28H58.9004ZM62.3281 22.3926V19.9668H62.9082C63.4121 19.9668 63.7051 19.7441 63.7871 19.2988C63.7988 19.2285 63.8047 19.1523 63.8047 19.0703C63.7344 18.4961 63.4355 18.1855 62.9082 18.1387H62.3281V15.6953H62.9785C65.1699 15.7773 66.2832 16.8789 66.3184 19C66.3184 20.5703 65.8672 21.584 64.9648 22.041C64.4609 22.2871 63.7988 22.4043 62.9785 22.3926C62.9434 22.3926 62.7266 22.3926 62.3281 22.3926ZM67.0215 25.6797V24.7832C67.0332 24.0332 67.3496 23.4531 67.9707 23.043C68.123 22.9609 68.7383 22.7324 69.8164 22.3574C71.0703 21.9355 71.6973 21.5605 71.6973 21.2324V20.8281C71.6855 20.4062 71.4277 20.1777 70.9238 20.1426V17.9805C71.8027 17.9805 72.541 18.2793 73.1387 18.877C73.6777 19.4277 73.9473 20.0254 73.9473 20.6699V25.2578C73.959 25.6094 74.123 25.7969 74.4395 25.8203V28C73.7246 28 73.1504 27.8125 72.7168 27.4375C72.2598 27.8008 71.668 27.9883 70.9414 28V25.8379C71.0352 25.8379 71.123 25.8262 71.2051 25.8027C71.5332 25.709 71.6973 25.4863 71.6973 25.1348V23.6934C71.3809 23.8809 70.7656 24.1035 69.8516 24.3613C69.4766 24.4551 69.2598 24.5195 69.2012 24.5547C69.0605 24.625 68.9844 24.7598 68.9727 24.959V25.2051C68.9727 25.2754 68.9785 25.3457 68.9902 25.416C69.0605 25.6973 69.3945 25.8379 69.9922 25.8379V28C69.207 28 68.5391 27.8008 67.9883 27.4023C67.3438 26.9336 67.0215 26.3594 67.0215 25.6797ZM67.1445 20.4941C67.1562 19.8965 67.4023 19.3516 67.8828 18.8594C68.4922 18.2734 69.2012 17.9805 70.0098 17.9805V20.1426C69.4707 20.1543 69.1953 20.5293 69.1836 21.2676L67.1445 20.4941ZM75.002 17.9805H77.5332L79.8711 25.7852L77.9551 31.5156H75.5293L77.2871 25.75L75.002 17.9805ZM79.1152 20.3359L79.8535 17.9805H82.3848L80.3984 23.9219H80.1699L79.1152 20.3359ZM87.2012 28V19.3516H87.3418L89.6797 23.1133V28H87.2012ZM87.2012 17.3125V15.6953H89.2227L95.0234 25.0469V28H93.8457L87.2012 17.3125ZM92.5449 19.2461V15.6953H95.0234V23.0078H94.8828L92.5449 19.2461ZM96.4297 25.2754V20.6875C96.4297 20.1133 96.6816 19.5508 97.1855 19C97.8184 18.332 98.6211 17.9922 99.5938 17.9805V20.2656C99.0664 20.3125 98.7852 20.5352 98.75 20.9336V25.0293C98.7734 25.4863 99.0547 25.7207 99.5938 25.7324V28.0176C98.4453 28.0176 97.5547 27.5547 96.9219 26.6289C96.5938 26.1484 96.4297 25.6973 96.4297 25.2754ZM100.402 28.0176V25.7324C100.895 25.6738 101.164 25.4512 101.211 25.0645L101.193 20.9336C101.111 20.5117 100.842 20.2891 100.385 20.2656V17.9805C101.486 17.9805 102.348 18.4258 102.969 19.3164C103.297 19.7969 103.461 20.2539 103.461 20.6875V25.2754C103.461 25.8613 103.209 26.4355 102.705 26.998C102.096 27.666 101.328 28.0059 100.402 28.0176ZM104.252 17.9805H106.871L109.438 25.5742L108.646 28H107.311L104.252 17.9805ZM108.436 20.3887L109.174 17.9805H111.793L114.359 25.5742L113.568 28H112.232L110.457 22.2168L109.912 23.9746H109.684L108.436 20.3887ZM113.357 20.3887L114.096 17.9805H116.715L114.834 23.9746H114.605L113.357 20.3887Z" fill="#FFB6B8"/>
</svg>
